<?xml version="1.0" encoding="utf-8"?>
<!-- Source: https://www.svgrepo.com/svg/383604/cinema-glasses-stereo-movie (CC0), adapted for app icon -->
<svg xmlns="http://www.w3.org/2000/svg" viewBox="0 0 128 128" width="128" height="128">
  <rect width="128" height="128" rx="28" fill="#0C0D12"/>
  <!-- ~90% scale + thick stroke so glasses stay readable at 16–24px panel size -->
  <g
      fill="none"
      stroke="#FF7A18"
      stroke-width="2.6"
      stroke-linecap="round"
      stroke-linejoin="round"
      transform="translate(64 66) scale(2.85) translate(-16 -16)">
    <path d="M29,27h-8.8c-0.8,0-1.6-0.3-2.1-0.9l0,0c-1.2-1.2-3.1-1.2-4.2,0l0,0c-0.6,0.6-1.3,0.9-2.1,0.9H3c-1.1,0-2-0.9-2-2v-9.6C1,14.6,1.6,14,2.4,14h27.1c0.8,0,1.4,0.6,1.4,1.4V25C31,26.1,30.1,27,29,27z"/>
    <rect x="5" y="18" width="8" height="5"/>
    <rect x="19" y="18" width="8" height="5"/>
    <path d="M1,15l3.9-6.6C6.2,6.3,8.5,5,11,5h0v3h0c-1.7,0-3.2,1.3-3.4,3l-0.4,3"/>
    <path d="M31,15l-3.9-6.6C25.8,6.3,23.5,5,21,5h0v3h0c1.7,0,3.2,1.3,3.4,3l0.4,3"/>
  </g>
</svg>
