<?xml version="1.0" encoding="iso-8859-1"?>
<!-- Uploaded to: SVG Repo, www.svgrepo.com, Generator: SVG Repo Mixer Tools -->
<!DOCTYPE svg PUBLIC "-//W3C//DTD SVG 1.1//EN" "http://www.w3.org/Graphics/SVG/1.1/DTD/svg11.dtd">
<svg fill="#000000" version="1.1" id="Capa_1" xmlns="http://www.w3.org/2000/svg" xmlns:xlink="http://www.w3.org/1999/xlink" 
	 width="800px" height="800px" viewBox="0 0 321.595 321.595"
	 xml:space="preserve">
<g>
	<circle cx="122.923" cy="144.891" r="10.042"/>
	<circle cx="161.611" cy="144.891" r="10.042"/>
	<path d="M122.747,167.287c5.546,0,10.04,4.5,10.04,10.048c0,5.544-4.494,10.037-10.04,10.037c-5.545,0-10.042-4.493-10.042-10.037
		C112.705,171.787,117.202,167.287,122.747,167.287z"/>
	<path d="M161.433,167.287c5.546,0,10.046,4.5,10.046,10.048c0,5.544-4.5,10.037-10.046,10.037s-10.042-4.493-10.042-10.037
		C151.39,171.787,155.887,167.287,161.433,167.287z"/>
	<path d="M177.127,198.518c-3.036-3.041-8.516-3.612-12.284-1.366c-3.313,1.969-6.872,3.48-10.586,4.478
		c-4.44,1.197-7.654,5.271-7.643,9.696l0.026,45.218c0.005,4.773,3.683,8.5,8.386,8.5c0.333,0,0.683-0.021,1.021-0.062
		c19.462-2.301,37.667-9.774,52.638-21.608c1.886-1.501,3.046-3.727,3.191-6.093c0.138-2.41-0.786-4.794-2.529-6.542
		L177.127,198.518z M155.535,256.076l-0.021-44.761c0-0.305,0.496-0.94,1.05-1.077c4.498-1.211,8.819-3.034,12.839-5.438
		c0.185-0.114,0.457-0.179,0.73-0.179c0.363,0,0.62,0.116,0.693,0.189l31.905,31.905
		C189.272,247.236,172.979,253.925,155.535,256.076z"/>
	<path d="M154.139,119.809c4.441,1.216,8.683,3.18,12.624,5.838c1.639,1.113,3.581,1.701,5.606,1.701
		c2.584,0,4.988-0.968,6.752-2.727l32.095-32.103c1.723-1.725,2.655-4.094,2.562-6.494c-0.109-2.365-1.213-4.607-3.044-6.137
		c-16.064-13.499-35.004-21.927-54.773-24.378c-5.234-0.666-9.428,3.307-9.428,8.423l-0.01,46.182
		C146.517,114.521,149.722,118.608,154.139,119.809z M155.435,64.418c17.721,2.31,34.741,9.921,49.26,22.021l-31.874,31.888
		c-0.094,0.091-0.756,0.16-1.07-0.056c-4.746-3.212-9.882-5.577-15.269-7.05c-0.564-0.157-1.065-0.803-1.065-1.112L155.435,64.418z"
		/>
	<path d="M110.469,187.571c-4.51-5.5-7.581-12.114-8.848-19.029c-0.617-3.732-0.617-3.732-24.565-3.742l-29.948-0.011
		c-2.488,0-4.821,1.034-6.417,2.856c-1.57,1.789-2.302,4.184-1.99,6.583c2.538,19.916,10.704,38.614,23.614,54.073
		c1.63,1.938,4,3.051,6.509,3.051c2.297,0,4.473-0.903,6.128-2.567l21.061-21.062C113.33,190.395,113.33,190.395,110.469,187.571z
		 M68.881,222.27c-11.541-13.931-18.885-30.709-21.266-48.583c11.912,0,36.864,0.012,46.041,0.026
		c1.499,5.733,4.016,11.213,7.514,16.258C94.363,196.778,76.395,214.754,68.881,222.27z"/>
	<path d="M245.74,167.646c-1.595-1.822-3.932-2.856-6.409-2.856h-45.67c-4.398,0-8.504,3.182-9.743,7.564
		c-1.081,3.802-2.692,7.428-4.797,10.798c-2.415,3.896-1.885,9.187,1.249,12.315l32.158,32.163c1.648,1.644,3.8,2.557,6.089,2.557
		c2.54,0,4.935-1.145,6.552-3.149c12.305-15.202,20.109-33.459,22.561-52.798C248.046,171.834,247.311,169.435,245.74,167.646z
		 M218.554,221.054l-31.889-31.886c-0.185-0.188-0.254-0.872,0.016-1.303c2.551-4.072,4.503-8.472,5.805-13.075
		c0.163-0.584,0.852-1.104,1.176-1.104h45.155C236.513,191.016,229.515,207.373,218.554,221.054z"/>
	<path d="M108.545,123.631c1.791,1.79,4.242,2.774,6.908,2.774c1.93,0,3.798-0.522,5.403-1.514c4.123-2.575,8.606-4.399,13.325-5.42
		c4.51-0.96,7.912-5.052,7.912-9.53V64.497c0-4.817-3.72-8.593-8.465-8.593l-0.855,0.047c-20.476,2.016-39.756,9.94-55.786,22.892
		c-1.872,1.513-3.011,3.738-3.134,6.109c-0.124,2.406,0.801,4.795,2.538,6.524L108.545,123.631z M133.196,64.846v45.089
		c0,0.221-0.399,0.725-0.887,0.822c-5.735,1.241-11.181,3.457-16.158,6.569c-0.399,0.252-1.194,0.128-1.312,0.01L82.968,85.462
		C97.445,73.867,114.802,66.749,133.196,64.846z"/>
	<path d="M134.191,202.112c-3.979-0.86-7.806-2.294-11.365-4.252c-3.832-2.11-9.234-1.438-12.228,1.569l-32.311,32.321
		c-1.758,1.753-2.666,4.146-2.517,6.552c0.162,2.384,1.354,4.594,3.286,6.068c15.43,11.832,34.003,19.134,53.709,21.118l0.861,0.047
		c2.299,0,4.446-0.908,6.047-2.545c1.565-1.612,2.418-3.755,2.418-6.038v-45.298C142.092,207.194,138.695,203.089,134.191,202.112z
		 M133.196,256.58c-17.68-1.868-34.339-8.398-48.239-18.914l31.924-31.941c0.152-0.148,1.128-0.336,1.641-0.062
		c4.328,2.371,8.96,4.115,13.777,5.154c0.488,0.104,0.892,0.619,0.892,0.839v44.925H133.196z"/>
	<path d="M180.297,140.418c2.062,3.759,3.538,7.775,4.377,11.951c0.925,4.543,4.999,7.971,9.491,7.971h45.407
		c2.446,0,4.788-1.026,6.404-2.801c1.602-1.75,2.384-4.129,2.174-6.499c-1.815-19.788-9.207-38.602-21.365-54.426
		c-3.008-3.902-9.103-4.256-12.613-0.747l-32.311,32.323C178.763,131.292,178.098,136.437,180.297,140.418z M239.562,151.436v4.448
		V151.436z M188.166,134.479l31.854-32.058c10.934,14.362,17.59,31.407,19.354,49.005h-45.218c-0.189,0-0.652-0.36-0.756-0.827
		c-1.014-5.052-2.798-9.923-5.303-14.474C187.792,135.582,187.93,134.715,188.166,134.479z"/>
	<path d="M46.872,160.34h45.389c4.502,0,8.585-3.428,9.5-7.966c0.942-4.667,2.656-9.105,5.097-13.197
		c2.366-3.956,1.791-9.126-1.365-12.282l-32.215-32.22c-3.484-3.478-9.581-3.184-12.628,0.661
		c-12.75,16.045-20.492,35.311-22.363,55.709c-0.212,2.381,0.583,4.749,2.173,6.494C42.092,159.32,44.42,160.34,46.872,160.34z
		 M67.295,101.281l31.895,31.91c0.209,0.21,0.302,0.956,0.023,1.422c-2.968,4.964-5.042,10.35-6.183,16.008
		c-0.084,0.436-0.536,0.819-0.762,0.819H47.206C48.964,133.109,55.904,115.778,67.295,101.281z"/>
	<path d="M321.295,279.762c-0.325-0.903-1.753-3.843-6.389-3.843h-86.599c35.245-26.115,58.121-67.99,58.121-115.122
		c0-78.97-64.242-143.223-143.214-143.223C64.245,17.575,0,81.822,0,160.797S64.245,304.02,143.223,304.02
		c4.724,0,9.394-0.246,14.003-0.692c0.38,0.036,0.698,0.109,1.123,0.109h127.257c3.238,0,7.721-0.961,10.419-2.236
		c10.772-5.08,18.924-11.244,22.824-14.462C322.394,283.813,321.611,280.653,321.295,279.762z M13.357,160.797
		c0-71.605,58.253-129.857,129.857-129.857c71.606,0,129.865,58.252,129.865,129.857s-58.254,129.862-129.865,129.862
		C71.605,290.659,13.357,232.402,13.357,160.797z M292.225,293.147c-1.532,0.725-4.692,1.386-6.619,1.386h-91.22
		c7.009-2.688,13.748-5.921,20.179-9.627c0.257-0.031,0.545-0.083,0.761-0.083h91.282
		C302.797,287.452,297.915,290.47,292.225,293.147z"/>
</g>
</svg>